<svg width="188" height="48" viewBox="0 0 188 48" fill="none" xmlns="http://www.w3.org/2000/svg">
<g clip-path="url(#clip0)">
<path d="M43.8139 20.5566H27.9171L27.3281 20.9971V35.1389H31.7288V29.8358L32.1488 29.4594H43.8145C46.76 29.4594 48.1409 28.6669 48.1409 26.6335V23.3865C48.1403 21.3497 46.76 20.5566 43.8139 20.5566ZM43.8139 25.7849C43.8139 26.7429 43.1802 26.9419 41.7993 26.9419H32.197L31.7282 26.4861V23.4568L32.1482 23.0724H41.7993C43.1802 23.0724 43.8139 23.2691 43.8139 24.2317V25.7849Z" fill="white"/>
<path d="M56.1675 23.2314L59.9543 28.7794L59.7445 29.3168H51.3701L49.2324 31.9465H61.698L62.5619 32.4726L64.4972 35.142H69.5333L58.4946 20.3755" fill="white"/>
<path d="M106.242 32.2696V28.3446L106.695 27.9534H115.12V25.4541H101.768V35.1414H121.464V32.654H106.715" fill="white"/>
<path d="M121.672 20.5566H101.768V23.3048H121.672V20.5566Z" fill="white"/>
<path d="M79.5668 23.159H95.6025C95.3554 21.1199 94.0901 20.5542 90.8805 20.5542H79.3962C75.7744 20.5542 74.6191 21.2611 74.6191 24.0019V31.6916C74.6191 34.4352 75.7744 35.1421 79.3962 35.1421H90.8805C94.1371 35.1421 95.3843 34.5305 95.4693 32.4154H79.5668L79.0952 31.9716V23.456" fill="white"/>
<path d="M16.6279 26.2387H4.96227L4.61874 25.8606V23.3652L4.96057 23.1011H20.6868L20.9016 22.5756C20.3659 21.1975 18.9788 20.5547 16.4029 20.5547H5.47869C1.85921 20.5547 0.702218 21.2616 0.702218 24.0024V25.6146C0.702218 28.3588 1.85921 29.0646 5.47869 29.0646H17.1183L17.4839 29.3854V31.9942L17.1857 32.4012H3.8716V32.3887H0.384202C0.384202 32.3887 -0.0148763 32.5888 0.00042926 32.6824C0.298038 34.5995 1.60411 35.1426 4.73098 35.1426H16.6279C20.2469 35.1426 21.4384 34.4357 21.4384 31.692V29.6836C21.4384 26.9445 20.2469 26.2387 16.6279 26.2387Z" fill="white"/>
<path d="M134.192 20.4961H127.644L127.289 21.1724L134.561 26.4732C135.938 25.6756 137.437 24.8673 139.068 24.0697" fill="white"/>
<path d="M140.061 30.4816L146.452 35.1425H153.08L153.354 34.5251L143.81 27.5396C142.543 28.4698 141.291 29.4522 140.061 30.4816Z" fill="white"/>
<path d="M133.218 35.1318H127.294L126.793 34.3478C130.821 30.4585 148.838 13.7862 187.999 12C187.999 12 155.129 13.1088 133.218 35.1318Z" fill="white"/>
</g>
<defs>
<clipPath id="clip0">
<rect width="188" height="23.1426" fill="white" transform="translate(0 12)"/>
</clipPath>
</defs>
</svg>
